<svg xmlns="http://www.w3.org/2000/svg" xmlns:xlink="http://www.w3.org/1999/xlink" viewBox="0 0 56 73.75" version="1.1" x="0px" y="0px"><title>91 -Web Analytics- (Outline)</title><desc>Created with Sketch.</desc><g stroke="none" stroke-width="1" fill="none" fill-rule="evenodd"><g transform="translate(-123.000000, -1431.000000)" fill="#000000"><g transform="translate(123.000000, 1431.000000)"><path d="M1,10 L55,10 C55.5522847,10 56,9.55228475 56,9 L56,1 C56,0.44771525 55.5522847,0 55,0 L1,0 C0.44771525,0 0,0.44771525 0,1 L0,9 C0,9.55228475 0.44771525,10 1,10 Z M2,8 L2,2 L54,2 L54,8 L2,8 Z"/><path d="M5,6 L6,6 C6.55228475,6 7,5.55228475 7,5 C7,4.44771525 6.55228475,4 6,4 L5,4 C4.44771525,4 4,4.44771525 4,5 C4,5.55228475 4.44771525,6 5,6 Z"/><path d="M10,6 L11,6 C11.5522847,6 12,5.55228475 12,5 C12,4.44771525 11.5522847,4 11,4 L10,4 C9.44771525,4 9,4.44771525 9,5 C9,5.55228475 9.44771525,6 10,6 Z"/><path d="M15,6 L16,6 C16.5522847,6 17,5.55228475 17,5 C17,4.44771525 16.5522847,4 16,4 L15,4 C14.4477153,4 14,4.44771525 14,5 C14,5.55228475 14.4477153,6 15,6 Z"/><path d="M15,17 L41,17 C41.5522847,17 42,16.5522847 42,16 C42,15.4477153 41.5522847,15 41,15 L15,15 C14.4477153,15 14,15.4477153 14,16 C14,16.5522847 14.4477153,17 15,17 Z"/><path d="M13,22 L43,22 C43.5522847,22 44,21.5522847 44,21 C44,20.4477153 43.5522847,20 43,20 L13,20 C12.4477153,20 12,20.4477153 12,21 C12,21.5522847 12.4477153,22 13,22 Z"/><path d="M11,27 L45,27 C45.5522847,27 46,26.5522847 46,26 C46,25.4477153 45.5522847,25 45,25 L11,25 C10.4477153,25 10,25.4477153 10,26 C10,26.5522847 10.4477153,27 11,27 Z"/><path d="M40,45 C40,51.6277153 34.6277153,57 28,57 C21.3722847,57 16,51.6277153 16,45 C16,38.3722847 21.3722847,33 28,33 C34.6277153,33 40,38.3722847 40,45 Z M42,45 C42,37.2677153 35.7322847,31 28,31 C20.2677153,31 14,37.2677153 14,45 C14,52.7322847 20.2677153,59 28,59 C35.7322847,59 42,52.7322847 42,45 Z"/><path d="M27,32 L27,45 C27,45.5522847 27.4477153,46 28,46 C28.5522847,46 29,45.5522847 29,45 L29,32 C29,31.4477153 28.5522847,31 28,31 C27.4477153,31 27,31.4477153 27,32 Z"/><path d="M41,44 L28,44 C27.4477153,44 27,44.4477153 27,45 C27,45.5522847 27.4477153,46 28,46 L41,46 C41.5522847,46 42,45.5522847 42,45 C42,44.4477153 41.5522847,44 41,44 Z"/><path d="M0,1 L0,45 C0,45.5522847 0.44771525,46 1,46 L15,46 C15.5522847,46 16,45.5522847 16,45 C16,38.3722847 21.3722847,33 28,33 C34.6277153,33 40,38.3722847 40,45 C40,45.5522847 40.4477153,46 41,46 L55,46 C55.5522847,46 56,45.5522847 56,45 L56,1 C56,0.44771525 55.5522847,0 55,0 L1,0 C0.44771525,0 0,0.44771525 0,1 Z M54,2 L54,44 L41.9648401,44 C41.452134,36.7344703 35.3960504,31 28,31 C20.6039496,31 14.547866,36.7344703 14.0351599,44 L2,44 L2,2 L54,2 Z"/></g></g></g><text x="0" y="74" fill="#000000" font-size="5px" font-weight="bold" font-family="'Helvetica Neue', Helvetica, Arial-Unicode, Arial, Sans-serif">Created by Ben Davis</text><text x="0" y="79" fill="#000000" font-size="5px" font-weight="bold" font-family="'Helvetica Neue', Helvetica, Arial-Unicode, Arial, Sans-serif">from the Noun Project</text></svg>