<?xml version="1.0" encoding="utf-8"?>
<!-- Generator: Adobe Illustrator 19.0.0, SVG Export Plug-In . SVG Version: 6.00 Build 0)  -->
<svg version="1.1" id="Capa_1" xmlns="http://www.w3.org/2000/svg" xmlns:xlink="http://www.w3.org/1999/xlink" x="0px" y="0px"
	 viewBox="-237 364.5 64 64" style="enable-background:new -237 364.5 64 64;" xml:space="preserve">
<style type="text/css">
	.st0{fill:#A2B79B;}
</style>
<path class="st0" d="M-202.3,410.8v-1.7h23.8V408h-23.8v-14l21.2,11.2l0.6-1.1l-21.7-11.6v-2l21,11.1l0.6-1.1l-21.6-11.4v-7.3h-1.2
	v6.6l-3.9-2.1V373h-1.2v12.8l-9.7-5.1l-0.1,0v1.4l9.7,5.1v1.9l-9.7-5.1v1.4l9.7,5.1v17.3h-6.6v1.3h6.6v1.7h-6.6v1.2h11.8v6.1h1.2
	v-6.1h29.3v-1.2H-202.3z M-203.6,410.8h-4v-1.7h4V410.8z M-203.6,408h-3.9v-16.8l3.9,2.1V408z M-203.6,391.9l-4-2.1v-2l4,2.1V391.9z
	"/>
<polygon points="-215.3,409.2 -215.3,407.9 -215.3,400.7 -220.9,400.7 -220.9,408 -224,408 -228.7,408 -228.7,391.1 -218.4,385.5 
	-218.4,384 -218.4,382.1 -218.4,380.7 -237,390.9 -237,395.7 -232.9,393.4 -232.9,412.1 -218.4,412.1 -215.3,412.1 -215.3,410.8 "/>
</svg>
