<?xml version="1.0" encoding="utf-8"?>
<!-- Generator: Adobe Illustrator 19.0.0, SVG Export Plug-In . SVG Version: 6.00 Build 0)  -->
<svg version="1.1" id="Capa_1" xmlns="http://www.w3.org/2000/svg" xmlns:xlink="http://www.w3.org/1999/xlink" x="0px" y="0px"
	 viewBox="-237 364.5 64 64" style="enable-background:new -237 364.5 64 64;" xml:space="preserve">
<style type="text/css">
	.st0{fill:#9FC51D;}
	.st1{fill:#3EBFEF;}
	.st2{fill:none;stroke:#000000;stroke-width:3;stroke-linecap:round;stroke-miterlimit:10;}
</style>
<path class="st0" d="M-214.4,376.4c-0.4,0-0.8,0.4-0.8,0.8v34.9c0,0.4,0.4,0.8,0.8,0.8c0.4,0,0.8-0.4,0.8-0.8v-34.9
	C-213.6,376.7-213.9,376.4-214.4,376.4z"/>
<polygon class="st1" points="-189,376.4 -212.3,376.4 -212.3,393.7 -189,393.7 -200.8,385 "/>
<path class="st0" d="M-236.1,418.2c-0.2,0-0.5-0.1-0.6-0.3c-0.4-0.4-0.4-0.9,0-1.3c5-5.4,12.7-9.3,21.7-11c0.5-0.1,1,0.2,1.1,0.7
	c0.1,0.5-0.2,1-0.7,1.1c-8.6,1.6-15.9,5.4-20.7,10.4C-235.6,418.1-235.8,418.2-236.1,418.2z"/>
<path class="st2" d="M-209.2,484.3"/>
<path class="st0" d="M-173.9,417.6c-0.2,0-0.5-0.1-0.7-0.3c-6.8-6.8-18-10.8-30.1-10.8c-2.2,0-4.3,0.1-6.4,0.4c-0.5,0.1-1-0.3-1-0.8
	c-0.1-0.5,0.3-1,0.8-1c2.2-0.3,4.4-0.4,6.7-0.4c12.6,0,24.4,4.3,31.5,11.4c0.4,0.4,0.4,1,0,1.3
	C-173.5,417.5-173.7,417.6-173.9,417.6z"/>
</svg>
