<svg xmlns="http://www.w3.org/2000/svg" xmlns:xlink="http://www.w3.org/1999/xlink" version="1.1" x="0px" y="0px" viewBox="0 0 100 125" enable-background="new 0 0 100 100" xml:space="preserve"><path d="M29.845,58.746l-2.79,2.783l0.725,0.736L10.025,80.02l-3.902-3.902l17.76-17.758l0.725,0.723l2.789-2.777  c-6.31-7.508-6.31-18.462,0-25.955c7.167-8.521,19.883-9.621,28.397-2.446c8.521,7.161,9.612,19.882,2.445,28.401  C51.073,64.82,38.358,65.912,29.845,58.746z M58.94,43.325c0-8.902-7.213-16.121-16.122-16.121c-8.908,0-16.12,7.219-16.12,16.121  c0,8.91,7.211,16.126,16.12,16.126C51.728,59.451,58.94,52.234,58.94,43.325L58.94,43.325z"/><g><path d="M40.118,52.52h-6.302c-0.229,0-0.445-0.09-0.604-0.242c-0.336-0.33-0.343-0.875-0.013-1.219L51.556,32.25   c4.149,3.272,6.12,8.585,5.108,13.776c-1.492,7.644-8.896,12.63-16.546,11.144V52.52z"/></g><g><path d="M57.211,26.454l6.946-7.115l14.734,15.09v-7.669h7.586v15.441l8.642,8.858c0.158,0.152,0.248,0.375,0.248,0.596   c0,0.477-0.387,0.865-0.863,0.865h-6.303v24.602H40.118V65.328c12.15,1.494,23.218-7.146,24.706-19.302   C65.731,38.635,62.872,31.284,57.211,26.454z"/></g><text x="0" y="115" fill="#000000" font-size="5px" font-weight="bold" font-family="'Helvetica Neue', Helvetica, Arial-Unicode, Arial, Sans-serif">Created by Aldric Rodríguez</text><text x="0" y="120" fill="#000000" font-size="5px" font-weight="bold" font-family="'Helvetica Neue', Helvetica, Arial-Unicode, Arial, Sans-serif">from the Noun Project</text></svg>