<?xml version="1.0" encoding="utf-8"?>
<!-- Generator: Adobe Illustrator 19.0.0, SVG Export Plug-In . SVG Version: 6.00 Build 0)  -->
<svg version="1.1" id="Capa_1" xmlns="http://www.w3.org/2000/svg" xmlns:xlink="http://www.w3.org/1999/xlink" x="0px" y="0px"
	 viewBox="-237 364.5 64 64" style="enable-background:new -237 364.5 64 64;" xml:space="preserve">
<style type="text/css">
	.st0{fill:#28B091;}
	.st1{fill:#B90E66;}
</style>
<g>
	<path class="st0" d="M-220,403.8l-2,2l0.5,0.5l-12.7,12.7l-2.8-2.8l12.7-12.7l0.5,0.5l2-2c-4.5-5.4-4.5-13.2,0-18.6
		c5.1-6.1,14.3-6.9,20.4-1.8c6.1,5.1,6.9,14.3,1.8,20.4C-204.8,408.1-213.9,408.9-220,403.8z M-199.1,392.7
		c0-6.4-5.2-11.6-11.6-11.6c-6.4,0-11.6,5.2-11.6,11.6c0,6.4,5.2,11.6,11.6,11.6C-204.3,404.3-199.1,399.1-199.1,392.7L-199.1,392.7
		z"/>
	<g>
		<path class="st1" d="M-212.6,399.3h-4.5c-0.2,0-0.3-0.1-0.4-0.2c-0.2-0.2-0.2-0.6,0-0.9l13.2-13.5c3,2.3,4.4,6.2,3.7,9.9
			c-1.1,5.5-6.4,9.1-11.9,8C-212.6,402.6-212.6,399.3-212.6,399.3z"/>
	</g>
	<g>
		<path class="st1" d="M-200.4,380.6l5-5.1l10.6,10.8v-5.5h5.4v11.1l6.2,6.4c0.1,0.1,0.2,0.3,0.2,0.4c0,0.3-0.3,0.6-0.6,0.6h-4.5
			v17.6h-34.5v-8.5c8.7,1.1,16.7-5.1,17.7-13.8C-194.3,389.3-196.3,384.1-200.4,380.6z"/>
	</g>
</g>
</svg>
